<?xml version="1.0" encoding="UTF-8" standalone="no"?>
<!DOCTYPE svg PUBLIC "-//W3C//DTD SVG 1.1//EN"
 "http://www.w3.org/Graphics/SVG/1.1/DTD/svg11.dtd">
<!-- Generated by graphviz version 2.26.3 (20100126.1600)
 -->
<!-- Title: Namespaces Pages: 1 -->
<svg width="628pt" height="140pt"
 viewBox="0.00 0.00 628.00 140.00" xmlns="http://www.w3.org/2000/svg" xmlns:xlink="http://www.w3.org/1999/xlink">
<g id="graph1" class="graph" transform="scale(1 1) rotate(0) translate(4 136)">
<title>Namespaces</title>
<polygon fill="white" stroke="white" points="-4,5 -4,-136 625,-136 625,5 -4,5"/>
<!-- Maternity -->
<g id="node1" class="node"><title>Maternity</title>
<ellipse fill="none" stroke="black" cx="301" cy="-114" rx="57.8712" ry="18"/>
<text text-anchor="middle" x="301" y="-109.9" font-family="Times Roman,serif" font-size="14.00">Maternity</text>
</g>
<!-- Maternity::\nPediatrics -->
<g id="node3" class="node"><title>Maternity::\nPediatrics</title>
<ellipse fill="none" stroke="black" cx="65" cy="-30" rx="65.0538" ry="29.6985"/>
<text text-anchor="middle" x="65" y="-34.4" font-family="Times Roman,serif" font-size="14.00">Maternity::</text>
<text text-anchor="middle" x="65" y="-17.4" font-family="Times Roman,serif" font-size="14.00">Pediatrics</text>
</g>
<!-- Maternity&#45;&gt;Maternity::\nPediatrics -->
<g id="edge2" class="edge"><title>Maternity&#45;&gt;Maternity::\nPediatrics</title>
<path fill="none" stroke="black" d="M260.139,-101.172C227.233,-90.651 179.886,-75.0848 139,-60 133.584,-58.0019 127.973,-55.8601 122.372,-53.6741"/>
<polygon fill="black" stroke="black" points="123.58,-50.3882 112.993,-49.9713 121.009,-56.8991 123.58,-50.3882"/>
</g>
<!-- Maternity::\nGynecology -->
<g id="node5" class="node"><title>Maternity::\nGynecology</title>
<ellipse fill="none" stroke="black" cx="216" cy="-30" rx="68.0887" ry="29.6985"/>
<text text-anchor="middle" x="216" y="-34.4" font-family="Times Roman,serif" font-size="14.00">Maternity::</text>
<text text-anchor="middle" x="216" y="-17.4" font-family="Times Roman,serif" font-size="14.00">Gynecology</text>
</g>
<!-- Maternity&#45;&gt;Maternity::\nGynecology -->
<g id="edge4" class="edge"><title>Maternity&#45;&gt;Maternity::\nGynecology</title>
<path fill="none" stroke="black" d="M283.388,-96.5951C273.974,-87.292 262.045,-75.5031 250.848,-64.4383"/>
<polygon fill="black" stroke="black" points="253.203,-61.8447 243.63,-57.305 248.283,-66.8237 253.203,-61.8447"/>
</g>
<!-- Maternity::\nAnesthesiology -->
<g id="node7" class="node"><title>Maternity::\nAnesthesiology</title>
<ellipse fill="none" stroke="black" cx="387" cy="-30" rx="85.0596" ry="29.6985"/>
<text text-anchor="middle" x="387" y="-34.4" font-family="Times Roman,serif" font-size="14.00">Maternity::</text>
<text text-anchor="middle" x="387" y="-17.4" font-family="Times Roman,serif" font-size="14.00">Anesthesiology</text>
</g>
<!-- Maternity&#45;&gt;Maternity::\nAnesthesiology -->
<g id="edge6" class="edge"><title>Maternity&#45;&gt;Maternity::\nAnesthesiology</title>
<path fill="none" stroke="black" d="M318.819,-96.5951C328.182,-87.4497 340.005,-75.902 351.165,-65.0015"/>
<polygon fill="black" stroke="black" points="353.663,-67.4547 358.371,-57.9635 348.771,-62.4471 353.663,-67.4547"/>
</g>
<!-- Maternity::\nObstetrics -->
<g id="node9" class="node"><title>Maternity::\nObstetrics</title>
<ellipse fill="none" stroke="black" cx="555" cy="-30" rx="65.0538" ry="29.6985"/>
<text text-anchor="middle" x="555" y="-34.4" font-family="Times Roman,serif" font-size="14.00">Maternity::</text>
<text text-anchor="middle" x="555" y="-17.4" font-family="Times Roman,serif" font-size="14.00">Obstetrics</text>
</g>
<!-- Maternity&#45;&gt;Maternity::\nObstetrics -->
<g id="edge8" class="edge"><title>Maternity&#45;&gt;Maternity::\nObstetrics</title>
<path fill="none" stroke="black" d="M344.648,-102.144C381.331,-91.8852 434.989,-76.1882 481,-60 486.445,-58.0841 492.077,-55.9978 497.691,-53.8471"/>
<polygon fill="black" stroke="black" points="499.038,-57.0785 507.084,-50.1858 496.496,-50.5564 499.038,-57.0785"/>
</g>
</g>
</svg>
